<svg xmlns="http://www.w3.org/2000/svg" viewBox="0 0 1024 1024"><defs><linearGradient id="a" x1="10.4" x2="1004.6" y1="511.5" y2="511.5" gradientUnits="userSpaceOnUse"><stop offset="0" stop-color="#6cb5e4"/><stop offset="0" stop-color="#62b0e1"/><stop offset="0" stop-color="#49a2d9"/><stop offset="0" stop-color="#208ccc"/><stop offset="0" stop-color="#007cc2"/><stop offset="1" stop-color="#0059a9"/></linearGradient></defs><ellipse cx="507.5" cy="511.5" fill="url(#a)" rx="497.1" ry="499.92"/><path d="M531 0c-1.04 1.36 13.43 1.06 18.8 1.45 251.56 17.98 453.82 219.96 472.17 471.42l.76 10.46c.36 4.88-.33 20.41 1.27 19.67v30c-1.34-1.46-1.05 11.86-1.42 16.93-14.76 201.89-148.64 376.68-339.19 444.53a509 509 0 0 1-133.7 28.09c-6.02.45-20.21.02-19.69 1.45h-37c.99-1.42-13.34-1.01-18.93-1.41a507 507 0 0 1-222.29-69.4c-142.6-84.37-236.56-232.71-249.96-398-.58-7.11-.61-21.2-1.82-22.19v-52c5.82-81.58 29.18-159.58 71.13-230.04C156.82 107.01 306.79 13.66 474.07 1.43c6.92-.51 13-.02 18.93-1.43zm445.67 512c0-256.64-208.05-464.69-464.69-464.69C255.33 47.3 47.28 255.35 47.28 512s208.05 464.69 464.69 464.69S976.66 768.64 976.66 512Z"/><path d="M966.69 511.98c0 251.15-203.6 454.75-454.75 454.75S57.2 763.13 57.2 511.98 260.8 57.23 511.95 57.23 966.7 260.83 966.7 511.98ZM423.04 635.26l14.17 19.4c3.71 5.08 8.48 8.26 15.28 8.26h63.56c3.46 0 6.85-1.37 8.7-3.76 1.68-2.16 1.97-6.33.12-8.92l-31.28-43.77-47.11-66.87c-.49-.69-.88-2.86-.79-3.69s.97-1.89 2.4-2.46c67.37-27.1 98.5-106.35 66.45-172.3-11.27-23.18-28.14-42.9-51.72-55.25-16.44-8.61-33.74-15.6-53.06-15.65l-147.71-.43c-5.41-.02-11.21 3.19-11.21 9.35l.06 343.57c0 4.44.62 9.33.89 13.37.16 2.46 4.59 7.05 7.11 7.05l59.12-.04c5.59 0 8.55-6.12 8.54-11.16l-.3-103.92c0-3.33 2.51-6.04 5.57-6.02l21.23.13c3.52.02 6.4 2.91 8.19 5.48l17.28 24.86zm197.17-83.59c0-2.1 2.43-5.34 4-5.37 7.55-.18 16.13.07 23.61-.54 7.05-.58 13.23-.37 20.18.05 11.35.69 22.27.36 33.63-.02 34.93-1.17 67.43-15.16 90.78-41.4 44.65-50.18 42.72-128.2-4.74-176.33-22.33-22.65-53.19-37.73-85.6-37.81l-147.95-.33c-4.34 0-9.16 4.07-9.17 8.08l-.14 81.15.11 275.44c0 3.89 5.85 8.43 8.98 8.43h49.09c7.9-.01 17.26-.29 17.26-9.03zM195.08 788.8l8.16-22.87 6.2 1.39c10.56 2.37 20.8-5.34 24.84-14.76 1.38-6.46.33-12.96-3.8-18.2l-18.46-23.47-48.43 36.3 8.15 11.91 15.46-11.54 5.72 7.93-8.36 20.26zm647.39-14.9 8.81-11.03-38.21-30.5 10.59-13.94-9.81-7.66-30.81 39.8 9.47 7.52 11.88-14.45zm-28.25 30c3.86-8.29 1.07-16.51-4.9-21.59-15.69-13.34-33.71 12.14-40.62 4.25-5.76-6.58 9.85-15.86 18.31-15.79l-2.81-12.25c-12.25.97-22.83 8.02-28.04 18.44-3.26 6.52-2.64 13.4 1.52 18.91 15.03 19.9 37.35-9.79 43.65-.7 5.7 8.23-12.62 17.99-21.63 17.71l2.18 12.35c14.17-.7 26.41-8.64 32.32-21.33Zm-574.81 27.95 11.39 9.65 23.19-61.22-11.72-10.74-59.06 28.5 11.26 10.49 10.6-5.62 18.12 16.77-3.77 12.16Zm499.33-41.34-11.86 8.91 37.19 49.47 11.86-8.91zm-410.26 64.48c8.64-13.64 5.42-30.74-7.46-40.02-7.7-5.54-15.41-10.39-23.88-15.71l-33.24 51.32 21.65 13.97c14.58 9.41 33.38 5.53 42.93-9.55Zm417.67-8.41-24.99 15.08-24.24-41.05a57 57 0 0 0-12.32 7.21l30.94 52.42 37.17-22.72zm-85.22 35.85 8 19.38 13.22-5.78-8.27-19.32 6.22-46-14.49 6.09-4.01 28.95-21.8-17.88-15.05 5.7 36.18 28.88Zm-308.81-50.82-26.06 56.47 13.56 6.26 26.06-56.47zm74.3 50.09a32.49 32.49 0 1 0-64.98 0 32.49 32.49 0 0 0 64.98 0m193.11 23.69 7.15 10.38 14.57-3.9-37.4-53.63-14.64 3.15-10.34 64.87 14.32-2.9 1.97-12.21 24.37-5.78Zm-112.51 2.36c9.38-8.41 9.49-24.29.59-33.15-4.32-4.3-10.76-5.22-16.53-5.67l-24.53-1.92-4.6 60.77 13.96 1.37 1.49-16.29c7.06-1.89 20.1 3.42 29.62-5.11m61.79 7.87-28.46 1.77-3.15-48.21-14.17 1 4.25 60.98 42.62-2.93z"/><path d="m429.78 634.67-63.01-89.18c-4.1-5.8-9.53-9.61-16.78-9.65-6.13-.03-12.85-.1-18.56.28-8.67.58-10.99 7.56-10.99 14.88l.04 101.96c0 2.96-2.7 4.84-5.36 4.83l-55.05-.16c-1.51 0-3.53-3.16-3.54-4.58l-.21-19.27.35-233.24.4-100.53c0-1.93 2.02-3.98 4.02-3.98l149.64.04c65.62 5.78 113.51 61.75 110.15 126.95-2.33 45.11-29.74 84.49-70.53 103.07a23 23 0 0 0-10 8.53c-1.31 2.06-.03 6.42 1.44 8.51l45.4 64.62 31.65 44.21c.53.75 1.15 2.7 1.06 3.47-.11.96-2.58 1.51-3.81 1.51h-69.87l-16.41-22.27Zm-45.81-116.09L395.88 536l11.81 17.38 43.39 62.35c-3.55 5.78-3.04 11.64.51 16.1s9.73 5.87 14.79 2.95c6.04-3.47 8.63-10.16 5.8-16.12s-9.07-8.22-16.15-6.04l-23-32.39-15.77-22.33-17.64-25.35-11.65-16.99 3.68-8.4c16.83.65 32.37-.56 46.91-7.21 31.48-14.4 51.48-43.34 53.74-77.91 3.22-49.3-33.08-96.37-83.43-96.71l-108.13-.75c-2.18-6.45-7.4-10.11-13.36-9.79-6.31.33-11.1 4.68-11.83 10.78s2.88 11.73 9.41 14.01l-.07 78.46 1.01 6.11-.26 114.83-.08 71.95c-6.49 2.05-10.16 7.1-9.18 13.63.83 5.55 5.99 10.65 11.97 10.48s11.28-4.82 12.19-10.43c1.03-6.38-2.8-11.57-9.22-13.66l-.27-77.89V509.9l.29-159.67c0-3.21.65-7.22.83-10.22 3.54-2.18 6.64-4.13 8.54-9.03l107.22.59c44.58.25 77.56 40.23 78.43 83.91.51 25.58-10.59 49.04-29.89 66.14-18.02 15.97-42.83 22.63-66.4 19.74-3.13-6.17-8.46-8.82-14.45-7.45-5.66 1.29-9.98 6.47-9.35 12.61.51 5.02 4.25 10.6 10.29 11.26l7.42.81Zm25.3-46.65c7.33 0 14.6-3.2 20.06-6.33 20.28-11.6 30.99-32.7 28.26-55.89-3.14-26.69-24.01-49.47-51.6-49.64l-72.98-.45c-3.73-.02-7.41.94-9.58 3.36-1.92 2.14-2.98 5.64-2.98 9.04l.17 87.02c.01 5.56 2.48 12.87 9.73 12.87h78.91Zm218.97 68.95c-5.64-.02-13.27 2.54-13.28 9.23l-.11 102.82c0 1.79-2.11 4.01-3.77 4.01h-56.22c-1.93 0-4.72-1.72-4.72-4.3l.08-342.4c0-5.63.04-14.29 4.78-14.28l144.99.28c28.17.05 55.11 11.62 75.99 29.57 25.43 21.87 39.99 51.96 42.23 85.11 4.67 68.92-50.54 127.24-109.24 128.69l-29.45.72a1746 1746 0 0 1-51.28.55m-43.11-19.86c5.61-1.56 7.67-4.7 9.49-9.85l101.28.11c12.69.01 23.79-1.07 35.49-5.63 37.67-14.7 59.95-51.32 58.1-91.74-1.54-33.68-20.07-63.85-50.46-79.15-10.35-5.21-21.33-9.54-33.49-9.59l-110.81-.44c-2.17-6.32-6.68-9.87-12.31-9.93-5.23-.06-10.71 2.87-12.26 8.34-2.09 7.38 2.04 13.89 9.63 16.5l.06 157.16c-7.72 2.69-12.74 10.58-8.63 17.87 1.75 3.1 5.59 5.1 8.72 7.08l-.28 88.53c-6.81 2.5-10.6 8.38-9.7 14.06 1 6.34 6.27 10.58 11.78 10.75 6.78.2 12.05-4.68 12.8-10.57.83-6.57-2.74-11.49-8.99-13.71zM410.64 887.11c-2.61 8.27-9.21 14.2-17.16 13.91-8.39-.31-15.51-5.87-17.04-14.61a21.9 21.9 0 0 1 6.32-19.64c6.1-5.8 14.73-5.33 21.27-1.42 7.3 4.37 9.33 13.14 6.61 21.76m-96.47-37.49c-9.83 11.25-21.45 5.86-31.11-1.9l19.5-30.32c5.22 3.13 9.74 5.77 13.16 9.82 5.59 6.62 4.05 15.99-1.56 22.4Zm-93.6-106.49c1.61 3.04-1.5 7.15-3.31 8.62-2.21 1.79-6.68 3.34-9.23 1.39-4.54-3.46-7.46-7.7-11.14-12.7l13.88-11.04c3.84 4.72 6.96 8.37 9.8 13.73m28.31 65.1-12.45-10.85 20.94-10.93zm363.74 86.22-16.12 3.91 3.21-22.95zm-124.1 6.44-10.05-.93 1.44-19.79 13.33 1.59c5.64.67 7.21 6.85 6.35 11.23-.98 5.03-4.88 8.46-11.07 7.89Z"/><path d="m398.33 466.3-66.4-.25c-2.01 0-5.3-2.09-5.3-4.19v-91.3c0-2.45 2.99-4.7 5.31-4.68l77.9.8c19.67.2 34.7 17.97 39.83 34.33 6.42 20.5-.55 40.51-15.39 54.07-10.09 9.22-22.16 11.28-35.94 11.23Zm364.99 8.93c-13.57 16.23-33.6 29.73-55.35 29.89l-113.7.86c-1.27-5.13-4.46-7.48-9.02-9.22V340.15c3.92-2.66 6.74-4.75 9.43-9.14l107.31.54c44.68.22 86.13 43.18 81.18 96.43-1.63 17.54-7.94 33.02-19.84 47.25Zm-55.94.94c29.3-4.62 47.16-28.93 47.35-57.15.2-30-19.46-55.05-50.02-59.1l-77.74-.27c-5.19-.02-12.03 3.54-12.03 9.44v98.76c0 2.86 5.24 8.29 8.07 8.29l84.36.04Z"/><path d="m705.52 470.62-81.47.17c-1.66 0-3.79-4.1-3.79-5.98l-.04-91.37c0-2.25 1.89-7.29 3.85-7.27l81.84.62c21.66.16 38.17 20.81 42 40.98 4.48 23.6-5.46 46.25-26.14 57.85-4.28 2.4-10.65 5-16.24 5.01Z"/></svg>